<svg xmlns="http://www.w3.org/2000/svg" width="1024" height="1024" viewBox="0 0 512 512"><rect width="512" height="512" rx="115" fill="#e2601f"></rect><svg x="40" y="40" width="432" height="432" viewBox="0 2 64 64" fill="none" stroke="#2a1408" stroke-width="2.9" stroke-linecap="round" stroke-linejoin="round"><path d="M30.5 15.4 L19 30.82" stroke="#fdf1e4" stroke-width="1.2"></path><path d="M30.5 18 L20 32.08" stroke="#fdf1e4" stroke-width="1.2"></path><path d="M30.5 20.6 L21 33.34" stroke="#fdf1e4" stroke-width="1.2"></path><path d="M33.5 15.4 L45 30.82" stroke="#fdf1e4" stroke-width="1.2"></path><path d="M33.5 18 L44 32.08" stroke="#fdf1e4" stroke-width="1.2"></path><path d="M33.5 20.6 L43 33.34" stroke="#fdf1e4" stroke-width="1.2"></path><path d="M30.5 12.4 L17 30.5" stroke-width="4"></path><path d="M33.5 12.4 L47 30.5" stroke-width="4"></path><circle cx="32" cy="38" r="7.4"></circle><path d="M23.4 61 Q23.4 52.6 32 52.6 Q40.6 52.6 40.6 61"></path><path d="M25 54 L17.8 44.4"></path><path d="M39 54 L46.2 44.4"></path><path d="M14 36.6 Q12 38 14 39.4" stroke="#fdf1e4"></path><path d="M50 36.6 Q52 38 50 39.4" stroke="#fdf1e4"></path><path d="M10.4 34.6 Q8 38 10.4 41.4" stroke="#fdf1e4"></path><path d="M53.6 34.6 Q56 38 53.6 41.4" stroke="#fdf1e4"></path><path d="M6.8 32.6 Q3.4 38 6.8 43.4" stroke="#fdf1e4"></path><path d="M57.2 32.6 Q60.6 38 57.2 43.4" stroke="#fdf1e4"></path></svg></svg>